<svg width="512" height="512" viewBox="0 0 512 512" fill="none" xmlns="http://www.w3.org/2000/svg">
<g clip-path="url(#clip0_2_83)">
<path d="M512 256C512 114.6 397.4 0 256 0C114.6 0 0 114.6 0 256C0 397.4 114.6 512 256 512C397.4 512 512 397.4 512 256ZM215 127C224.4 117.6 239.6 117.6 248.9 127C258.2 136.4 258.3 151.6 248.9 160.9L177.9 231.9L392 232C405.3 232 416 242.7 416 256C416 269.3 405.3 280 392 280H177.9L248.9 351C258.3 360.4 258.3 375.6 248.9 384.9C239.5 394.2 224.3 394.3 215 384.9L103 273C93.6 263.6 93.6 248.4 103 239.1L215 127Z" fill="black"/>
</g>
<defs>
<clipPath id="clip0_2_83">
<rect width="512" height="512" fill="white"/>
</clipPath>
</defs>
</svg>
