<svg width="512" height="512" viewBox="0 0 512 512" fill="none" xmlns="http://www.w3.org/2000/svg">
<g clip-path="url(#clip0_2_83)">
<path d="M0 256C0 114.6 114.6 0 256 0C397.4 0 512 114.6 512 256C512 397.4 397.4 512 256 512C114.6 512 0 397.4 0 256ZM297 127C287.6 117.6 272.4 117.6 263.1 127C253.8 136.4 253.7 151.6 263.1 160.9L334.1 231.9L120 232C106.7 232 96 242.7 96 256C96 269.3 106.7 280 120 280H334.1L263.1 351C253.7 360.4 253.7 375.6 263.1 384.9C272.5 394.2 287.7 394.3 297 384.9L409 273C418.4 263.6 418.4 248.4 409 239.1L297 127Z" fill="black"/>
</g>
<defs>
<clipPath id="clip0_2_83">
<rect width="512" height="512" fill="white" transform="matrix(-1 0 0 1 512 0)"/>
</clipPath>
</defs>
</svg>
